<?xml version="1.0" encoding="UTF-8" standalone="no" ?>
<!DOCTYPE svg PUBLIC "-//W3C//DTD SVG 1.1//EN" "http://www.w3.org/Graphics/SVG/1.1/DTD/svg11.dtd">
<svg xmlns="http://www.w3.org/2000/svg" xmlns:xlink="http://www.w3.org/1999/xlink" version="1.1" width="98" height="60" viewBox="0 0 98 60" xml:space="preserve">
<desc>Created with Fabric.js 3.6.3</desc>
<defs>
</defs>
<g transform="matrix(1.11 0 0 1.11 48.94 30.02)"  >
<path style="stroke: none; stroke-width: 1; stroke-dasharray: none; stroke-linecap: butt; stroke-dashoffset: 0; stroke-linejoin: miter; stroke-miterlimit: 4; fill: rgb(255,255,255); fill-rule: nonzero; opacity: 1;"  transform=" translate(-49.5, -49.5)" d="M 91.673 49.557 H 76.577 c 0 -0.019 0.001 -0.037 0.001 -0.056 c 0 -14.639 -11.908 -26.548 -26.545 -26.548 H 28.672 c -3.446 0 -6.251 2.805 -6.251 6.253 v 7.114 H 7.328 c -0.783 0 -1.418 0.634 -1.418 1.417 s 0.635 1.417 1.418 1.417 h 15.093 v 20.693 H 7.328 c -0.783 0 -1.418 0.634 -1.418 1.417 s 0.635 1.417 1.418 1.417 h 15.093 v 7.112 c 0 3.448 2.805 6.253 6.251 6.253 h 21.361 c 13.66 0 24.939 -10.374 26.385 -23.656 h 15.255 c 0.782 0 1.417 -0.634 1.417 -1.417 S 92.455 49.557 91.673 49.557 z M 50.033 73.213 H 28.672 c -1.883 0 -3.416 -1.534 -3.416 -3.419 V 29.206 c 0 -1.885 1.533 -3.419 3.416 -3.419 h 21.361 c 13.074 0 23.71 10.638 23.71 23.714 C 73.743 62.575 63.107 73.213 50.033 73.213 z" stroke-linecap="round" />
</g>
</svg>