<?xml version="1.0" encoding="UTF-8" standalone="no" ?>
<!DOCTYPE svg PUBLIC "-//W3C//DTD SVG 1.1//EN" "http://www.w3.org/Graphics/SVG/1.1/DTD/svg11.dtd">
<svg xmlns="http://www.w3.org/2000/svg" xmlns:xlink="http://www.w3.org/1999/xlink" version="1.1" width="98" height="60" viewBox="0 0 98 60" xml:space="preserve">
<desc>Created with Fabric.js 3.6.3</desc>
<defs>
</defs>
<g transform="matrix(1.11 0 0 1.11 48.78 29.92)" id="SvgjsG1013"  >
<path style="stroke: none; stroke-width: 1; stroke-dasharray: none; stroke-linecap: butt; stroke-dashoffset: 0; stroke-linejoin: miter; stroke-miterlimit: 4; fill: rgb(255,255,255); fill-rule: nonzero; opacity: 1;"  transform=" translate(-49.5, -49.5)" d="M 7.328 59.848 c -0.783 0 -1.418 0.634 -1.418 1.417 s 0.635 1.417 1.418 1.417 h 15.094 v 7.112 c 0 3.448 2.804 6.253 6.25 6.253 h 21.36 c 12.548 0 23.083 -8.755 25.837 -20.476 c 1.057 0.903 2.425 1.452 3.921 1.452 c 2.846 0 5.234 -1.978 5.875 -4.629 h 6.008 c 0.782 0 1.417 -0.634 1.417 -1.417 s -0.635 -1.417 -1.417 -1.417 h -6.008 c -0.64 -2.654 -3.028 -4.635 -5.875 -4.635 c -1.281 0 -2.469 0.403 -3.448 1.087 c -1.713 -12.994 -12.854 -23.06 -26.31 -23.06 h -21.36 c -3.446 0 -6.25 2.805 -6.25 6.253 v 7.114 H 7.328 c -0.783 0 -1.418 0.634 -1.418 1.417 s 0.635 1.417 1.418 1.417 h 15.094 v 20.693 H 7.328 z M 79.79 47.76 c 1.772 0 3.214 1.443 3.214 3.218 c 0 1.771 -1.441 3.212 -3.214 3.212 c -1.771 0 -3.212 -1.441 -3.212 -3.212 C 76.578 49.203 78.02 47.76 79.79 47.76 z M 25.256 29.206 c 0 -1.885 1.533 -3.419 3.416 -3.419 h 21.36 c 13.075 0 23.712 10.638 23.712 23.712 c 0 13.076 -10.637 23.714 -23.712 23.714 h -21.36 c -1.883 0 -3.416 -1.534 -3.416 -3.419 V 29.206 z" stroke-linecap="round" />
</g>
</svg>