<?xml version="1.0" encoding="UTF-8" standalone="no" ?>
<!DOCTYPE svg PUBLIC "-//W3C//DTD SVG 1.1//EN" "http://www.w3.org/Graphics/SVG/1.1/DTD/svg11.dtd">
<svg xmlns="http://www.w3.org/2000/svg" xmlns:xlink="http://www.w3.org/1999/xlink" version="1.1" width="100" height="60" viewBox="0 0 100 60" xml:space="preserve">
<desc>Created with Fabric.js 3.6.3</desc>
<defs>
</defs>
<g transform="matrix(1 0 0 1 133 88)"  >
<g style=""   >
		<g transform="matrix(1 0 0 1 0 20)"  >
<rect style="stroke: none; stroke-width: 1; stroke-dasharray: none; stroke-linecap: butt; stroke-dashoffset: 0; stroke-linejoin: miter; stroke-miterlimit: 4; fill: rgb(255,255,255); fill-opacity: 0; fill-rule: nonzero; opacity: 1;"  x="-50" y="-50" rx="0" ry="0" width="100" height="100" />
</g>
		<g transform="matrix(1 0 0 1 0 0)" id="68"  >
<rect style="stroke: none; stroke-width: 1; stroke-dasharray: none; stroke-linecap: butt; stroke-dashoffset: 0; stroke-linejoin: miter; stroke-miterlimit: 4; fill: rgb(255,255,255); fill-opacity: 0; fill-rule: nonzero; opacity: 1;" vector-effect="non-scaling-stroke"  x="-50" y="-30" rx="0" ry="0" width="100" height="60" />
</g>
		<g transform="matrix(1.12 0 0 1.12 9.27 0)"  >
<path style="stroke: none; stroke-width: 1; stroke-dasharray: none; stroke-linecap: butt; stroke-dashoffset: 0; stroke-linejoin: miter; stroke-miterlimit: 4; fill: rgb(255,255,255); fill-rule: nonzero; opacity: 1;" vector-effect="non-scaling-stroke"  transform=" translate(-57.76, -49.5)" d="M 85.665 49.558 C 85.024 46.906 82.637 44.927 79.79 44.927 C 78.509 44.927 77.32100000000001 45.33 76.34200000000001 46.014 C 74.62900000000002 33.018 63.488000000000014 22.952 50.03200000000001 22.952 L 23.839 22.952 C 23.057 22.952 22.421999999999997 23.586000000000002 22.421999999999997 24.369000000000003 C 22.421999999999997 24.381000000000004 22.421999999999997 24.392000000000003 22.421999999999997 24.404000000000003 C 22.413999999999998 24.733000000000004 22.519999999999996 25.067000000000004 22.746 25.342000000000002 C 28.337999999999997 32.118 31.418 40.698 31.418 49.5 C 31.418 58.303 28.338 66.884 22.746 73.66 C 22.535999999999998 73.914 22.421999999999997 74.30199999999999 22.421999999999997 74.631 C 22.421999999999997 75.414 23.057 76.048 23.839 76.048 L 50.032 76.048 C 62.580999999999996 76.048 73.116 67.292 75.87 55.57 C 76.927 56.473 78.29400000000001 57.022 79.79 57.022 C 82.637 57.022 85.024 55.043 85.665 52.391 L 91.673 52.391 C 92.455 52.391 93.09 51.757 93.09 50.974 C 93.09 50.190999999999995 92.455 49.556999999999995 91.673 49.556999999999995 L 85.665 49.556999999999995 z M 50.032 73.214 L 26.66 73.214 C 31.573999999999998 66.326 34.253 58.01 34.253 49.5 C 34.253 40.99 31.573 32.674 26.659 25.786 L 50.032 25.786 C 63.107 25.786 73.744 36.424 73.744 49.5 C 73.744 62.576 63.107 73.214 50.032 73.214 z M 79.79 54.188 C 78.019 54.188 76.578 52.746 76.578 50.974000000000004 C 76.578 49.202000000000005 78.019 47.760000000000005 79.79 47.760000000000005 C 81.56200000000001 47.760000000000005 83.004 49.202000000000005 83.004 50.974000000000004 C 83.004 52.746 81.562 54.188 79.79 54.188 z" stroke-linecap="round" />
</g>
		<g transform="matrix(1.12 0 0 1.12 -38.09 0)"  >
<path style="stroke: none; stroke-width: 1; stroke-dasharray: none; stroke-linecap: butt; stroke-dashoffset: 0; stroke-linejoin: miter; stroke-miterlimit: 4; fill: rgb(255,255,255); fill-rule: nonzero; opacity: 1;" vector-effect="non-scaling-stroke"  transform=" translate(-15.58, -49.5)" d="M 5.91 37.738 C 5.91 38.521 6.545 39.155 7.328 39.155 L 23.839 39.155 C 24.621 39.155 25.256 38.521 25.256 37.738 C 25.256 36.955 24.621 36.321 23.839 36.321 L 7.328 36.321 C 6.545 36.321 5.91 36.955 5.91 37.738 z M 7.328 62.681 L 23.839 62.681 C 24.621 62.681 25.256 62.047 25.256 61.263999999999996 C 25.256 60.480999999999995 24.621 59.846999999999994 23.839 59.846999999999994 L 7.328 59.846999999999994 C 6.545 59.846999999999994 5.91 60.480999999999995 5.91 61.263999999999996 C 5.91 62.047 6.545 62.681 7.328 62.681 z" stroke-linecap="round" />
</g>
</g>
</g>
<g transform="matrix(1 0 0 1 50 30)"  >
<g style=""   >
		<g transform="matrix(1 0 0 1 0 20)"  >
<rect style="stroke: none; stroke-width: 1; stroke-dasharray: none; stroke-linecap: butt; stroke-dashoffset: 0; stroke-linejoin: miter; stroke-miterlimit: 4; fill: rgb(255,255,255); fill-opacity: 0; fill-rule: nonzero; opacity: 1;"  x="-50" y="-50" rx="0" ry="0" width="100" height="100" />
</g>
		<g transform="matrix(1 0 0 1 0 0)"  >
<rect style="stroke: none; stroke-width: 1; stroke-dasharray: none; stroke-linecap: butt; stroke-dashoffset: 0; stroke-linejoin: miter; stroke-miterlimit: 4; fill: rgb(255,255,255); fill-opacity: 0; fill-rule: nonzero; opacity: 1;"  x="-50" y="-30" rx="0" ry="0" width="100" height="60" />
</g>
		<g transform="matrix(1.12 0 0 1.12 9.21 -0.03)"  >
<path style="stroke: none; stroke-width: 1; stroke-dasharray: none; stroke-linecap: butt; stroke-dashoffset: 0; stroke-linejoin: miter; stroke-miterlimit: 4; fill: rgb(255,255,255); fill-rule: nonzero; opacity: 1;"  transform=" translate(-57.76, -49.5)" d="M 85.665 49.558 C 85.024 46.906 82.637 44.927 79.79 44.927 C 78.509 44.927 77.32100000000001 45.33 76.34200000000001 46.014 C 74.62900000000002 33.018 63.488000000000014 22.952 50.03200000000001 22.952 L 23.839 22.952 C 23.057 22.952 22.421999999999997 23.586000000000002 22.421999999999997 24.369000000000003 C 22.421999999999997 24.381000000000004 22.421999999999997 24.392000000000003 22.421999999999997 24.404000000000003 C 22.413999999999998 24.733000000000004 22.519999999999996 25.067000000000004 22.746 25.342000000000002 C 28.337999999999997 32.118 31.418 40.698 31.418 49.5 C 31.418 58.303 28.338 66.884 22.746 73.66 C 22.535999999999998 73.914 22.421999999999997 74.30199999999999 22.421999999999997 74.631 C 22.421999999999997 75.414 23.057 76.048 23.839 76.048 L 50.032 76.048 C 62.580999999999996 76.048 73.116 67.292 75.87 55.57 C 76.927 56.473 78.29400000000001 57.022 79.79 57.022 C 82.637 57.022 85.024 55.043 85.665 52.391 L 91.673 52.391 C 92.455 52.391 93.09 51.757 93.09 50.974 C 93.09 50.190999999999995 92.455 49.556999999999995 91.673 49.556999999999995 L 85.665 49.556999999999995 z M 50.032 73.214 L 26.66 73.214 C 31.573999999999998 66.326 34.253 58.01 34.253 49.5 C 34.253 40.99 31.573 32.674 26.659 25.786 L 50.032 25.786 C 63.107 25.786 73.744 36.424 73.744 49.5 C 73.744 62.576 63.107 73.214 50.032 73.214 z M 79.79 54.188 C 78.019 54.188 76.578 52.746 76.578 50.974000000000004 C 76.578 49.202000000000005 78.019 47.760000000000005 79.79 47.760000000000005 C 81.56200000000001 47.760000000000005 83.004 49.202000000000005 83.004 50.974000000000004 C 83.004 52.746 81.562 54.188 79.79 54.188 z" stroke-linecap="round" />
</g>
		<g transform="matrix(1.12 0 0 1.12 -38.07 0.02)"  >
<path style="stroke: none; stroke-width: 1; stroke-dasharray: none; stroke-linecap: butt; stroke-dashoffset: 0; stroke-linejoin: miter; stroke-miterlimit: 4; fill: rgb(255,255,255); fill-rule: nonzero; opacity: 1;"  transform=" translate(-15.58, -49.5)" d="M 5.91 37.738 C 5.91 38.521 6.545 39.155 7.328 39.155 L 23.839 39.155 C 24.621 39.155 25.256 38.521 25.256 37.738 C 25.256 36.955 24.621 36.321 23.839 36.321 L 7.328 36.321 C 6.545 36.321 5.91 36.955 5.91 37.738 z M 7.328 62.681 L 23.839 62.681 C 24.621 62.681 25.256 62.047 25.256 61.263999999999996 C 25.256 60.480999999999995 24.621 59.846999999999994 23.839 59.846999999999994 L 7.328 59.846999999999994 C 6.545 59.846999999999994 5.91 60.480999999999995 5.91 61.263999999999996 C 5.91 62.047 6.545 62.681 7.328 62.681 z" stroke-linecap="round" />
</g>
</g>
</g>
</svg>