<?xml version="1.0" encoding="UTF-8" standalone="no" ?>
<!DOCTYPE svg PUBLIC "-//W3C//DTD SVG 1.1//EN" "http://www.w3.org/Graphics/SVG/1.1/DTD/svg11.dtd">
<svg xmlns="http://www.w3.org/2000/svg" xmlns:xlink="http://www.w3.org/1999/xlink" version="1.1" width="99" height="60" viewBox="0 0 99 60" xml:space="preserve">
<desc>Created with Fabric.js 3.6.3</desc>
<defs>
</defs>
<g transform="matrix(1.12 0 0 1.12 135.35 140.18)"  >
<path style="stroke: none; stroke-width: 1; stroke-dasharray: none; stroke-linecap: butt; stroke-dashoffset: 0; stroke-linejoin: miter; stroke-miterlimit: 4; fill: rgb(255,255,255); fill-rule: nonzero; opacity: 1;"  transform=" translate(-49.5, -49.5)" d="M 91.642 48.074 H 71.767 c -0.64 -2.652 -3.025 -4.631 -5.871 -4.631 c -2.522 0 -4.686 1.553 -5.592 3.751 c -0.342 -0.92 -0.879 -1.769 -1.593 -2.462 L 38.232 24.905 c -1.875 -1.825 -4.762 -2.369 -7.199 -1.344 c -2.453 1.042 -4.039 3.438 -4.039 6.105 v 18.405 H 7.358 c -0.782 0 -1.417 0.634 -1.417 1.417 s 0.635 1.417 1.417 1.417 h 19.636 v 18.423 c 0 2.662 1.586 5.058 4.05 6.106 c 0.825 0.342 1.693 0.516 2.578 0.516 c 1.733 0 3.372 -0.665 4.608 -1.869 l 20.482 -19.83 c 0.713 -0.692 1.249 -1.54 1.591 -2.462 c 0.906 2.199 3.07 3.753 5.592 3.753 c 2.846 0 5.231 -1.98 5.872 -4.635 h 19.874 c 0.782 0 1.417 -0.634 1.417 -1.417 S 92.424 48.074 91.642 48.074 z M 56.74 52.217 L 36.255 72.048 c -1.071 1.045 -2.737 1.343 -4.112 0.774 c -1.405 -0.599 -2.312 -1.97 -2.312 -3.493 V 29.667 c 0 -1.527 0.906 -2.9 2.307 -3.494 c 0.475 -0.2 0.975 -0.302 1.487 -0.302 c 0.991 0 1.926 0.379 2.634 1.068 l 20.48 19.828 c 0.732 0.712 1.152 1.704 1.152 2.724 C 57.891 50.513 57.471 51.507 56.74 52.217 z M 65.896 52.709 c -1.772 0 -3.214 -1.443 -3.214 -3.218 c 0 -1.771 1.441 -3.214 3.214 -3.214 c 1.771 0 3.212 1.442 3.212 3.214 C 69.107 51.266 67.666 52.709 65.896 52.709 z" stroke-linecap="round" />
</g>
<g transform="matrix(1 0 0 1 12 337)"  >
<line style="stroke: rgb(0,0,0); stroke-width: 2; stroke-dasharray: none; stroke-linecap: butt; stroke-dashoffset: 0; stroke-linejoin: miter; stroke-miterlimit: 4; fill: rgb(0,0,0); fill-rule: nonzero; opacity: 1;"  x1="0" y1="0" x2="0" y2="0" />
</g>
<g transform="matrix(1.12 0 0 1.12 49.35 30.18)"  >
<path style="stroke: none; stroke-width: 1; stroke-dasharray: none; stroke-linecap: butt; stroke-dashoffset: 0; stroke-linejoin: miter; stroke-miterlimit: 4; fill: rgb(255,255,255); fill-rule: nonzero; opacity: 1;"  transform=" translate(-49.5, -49.5)" d="M 91.642 48.074 H 71.767 c -0.64 -2.652 -3.025 -4.631 -5.871 -4.631 c -2.522 0 -4.686 1.553 -5.592 3.751 c -0.342 -0.92 -0.879 -1.769 -1.593 -2.462 L 38.232 24.905 c -1.875 -1.825 -4.762 -2.369 -7.199 -1.344 c -2.453 1.042 -4.039 3.438 -4.039 6.105 v 18.405 H 7.358 c -0.782 0 -1.417 0.634 -1.417 1.417 s 0.635 1.417 1.417 1.417 h 19.636 v 18.423 c 0 2.662 1.586 5.058 4.05 6.106 c 0.825 0.342 1.693 0.516 2.578 0.516 c 1.733 0 3.372 -0.665 4.608 -1.869 l 20.482 -19.83 c 0.713 -0.692 1.249 -1.54 1.591 -2.462 c 0.906 2.199 3.07 3.753 5.592 3.753 c 2.846 0 5.231 -1.98 5.872 -4.635 h 19.874 c 0.782 0 1.417 -0.634 1.417 -1.417 S 92.424 48.074 91.642 48.074 z M 56.74 52.217 L 36.255 72.048 c -1.071 1.045 -2.737 1.343 -4.112 0.774 c -1.405 -0.599 -2.312 -1.97 -2.312 -3.493 V 29.667 c 0 -1.527 0.906 -2.9 2.307 -3.494 c 0.475 -0.2 0.975 -0.302 1.487 -0.302 c 0.991 0 1.926 0.379 2.634 1.068 l 20.48 19.828 c 0.732 0.712 1.152 1.704 1.152 2.724 C 57.891 50.513 57.471 51.507 56.74 52.217 z M 65.896 52.709 c -1.772 0 -3.214 -1.443 -3.214 -3.218 c 0 -1.771 1.441 -3.214 3.214 -3.214 c 1.771 0 3.212 1.442 3.212 3.214 C 69.107 51.266 67.666 52.709 65.896 52.709 z" stroke-linecap="round" />
</g>
</svg>