<?xml version="1.0" encoding="UTF-8" standalone="no" ?>
<!DOCTYPE svg PUBLIC "-//W3C//DTD SVG 1.1//EN" "http://www.w3.org/Graphics/SVG/1.1/DTD/svg11.dtd">
<svg xmlns="http://www.w3.org/2000/svg" xmlns:xlink="http://www.w3.org/1999/xlink" version="1.1" width="100" height="60" viewBox="0 0 100 60" xml:space="preserve">
<desc>Created with Fabric.js 3.6.3</desc>
<defs>
</defs>
<g transform="matrix(1 0 0 1 229.81 140.89)"  >
<g style=""   >
		<g transform="matrix(1 0 0 1 0 20)"  >
<rect style="stroke: none; stroke-width: 1; stroke-dasharray: none; stroke-linecap: butt; stroke-dashoffset: 0; stroke-linejoin: miter; stroke-miterlimit: 4; fill: rgb(255,255,255); fill-opacity: 0; fill-rule: nonzero; opacity: 1;"  x="-50" y="-50" rx="0" ry="0" width="100" height="100" />
</g>
		<g transform="matrix(1 0 0 1 0 0)" id="68"  >
<rect style="stroke: none; stroke-width: 1; stroke-dasharray: none; stroke-linecap: butt; stroke-dashoffset: 0; stroke-linejoin: miter; stroke-miterlimit: 4; fill: rgb(255,255,255); fill-opacity: 0; fill-rule: nonzero; opacity: 1;" vector-effect="non-scaling-stroke"  x="-50" y="-30" rx="0" ry="0" width="100" height="60" />
</g>
		<g transform="matrix(0.89 0 0 0.89 7.36 0)"  >
<path style="stroke: none; stroke-width: 1; stroke-dasharray: none; stroke-linecap: butt; stroke-dashoffset: 0; stroke-linejoin: miter; stroke-miterlimit: 4; fill: rgb(255,255,255); fill-rule: nonzero; opacity: 1;" vector-effect="non-scaling-stroke"  transform=" translate(-57.76, -49.75)" d="M 91.673 48.331 L 76.539 48.331 C 75.799 34.35 64.194 23.202 50.033 23.202 L 23.838 23.202 C 23.056 23.202 22.421 23.836000000000002 22.421 24.619000000000003 C 22.421 24.631000000000004 22.422 24.642000000000003 22.422 24.654000000000003 C 22.413 24.983000000000004 22.52 25.317000000000004 22.745 25.592000000000002 C 28.338 32.369 31.418 40.948 31.418 49.75 C 31.418 58.553 28.338 67.133 22.744999999999997 73.91 C 22.534999999999997 74.164 22.420999999999996 74.55199999999999 22.420999999999996 74.881 C 22.420999999999996 75.664 23.055999999999997 76.298 23.837999999999997 76.298 L 50.033 76.298 C 64.19500000000001 76.298 75.80199999999999 65.149 76.54 51.165000000000006 L 91.673 51.165000000000006 C 92.455 51.165000000000006 93.09 50.531000000000006 93.09 49.748000000000005 C 93.09 48.965 92.455 48.331 91.673 48.331 z M 50.033 73.464 L 26.66 73.464 C 31.573999999999998 66.576 34.253 58.26 34.253 49.75 C 34.253 41.241 31.573 32.924 26.658 26.036 L 50.033 26.036 C 63.107 26.036 73.743 36.674 73.743 49.75 C 73.743 62.826 63.107 73.464 50.033 73.464 z" stroke-linecap="round" />
</g>
		<g transform="matrix(0.89 0 0 0.89 -30.28 -1.31)"  >
<path style="stroke: none; stroke-width: 1; stroke-dasharray: none; stroke-linecap: butt; stroke-dashoffset: 0; stroke-linejoin: miter; stroke-miterlimit: 4; fill: rgb(255,255,255); fill-rule: nonzero; opacity: 1;" vector-effect="non-scaling-stroke"  transform=" translate(-15.58, -48.27)" d="M 23.838 35.095 L 7.328 35.095 C 6.545 35.095 5.91 35.729 5.91 36.512 C 5.91 37.295 6.545 37.929 7.328 37.929 L 23.838 37.929 C 24.621000000000002 37.929 25.256 37.295 25.256 36.512 C 25.256 35.729 24.621 35.095 23.838 35.095 z M 23.838 58.62 L 7.328 58.62 C 6.545 58.62 5.91 59.254 5.91 60.037 C 5.91 60.82 6.545 61.454 7.328 61.454 L 23.838 61.454 C 24.621000000000002 61.454 25.256 60.82 25.256 60.037 C 25.256 59.254 24.621 58.62 23.838 58.62 z" stroke-linecap="round" />
</g>
</g>
</g>
<g transform="matrix(1 0 0 1 50 30)"  >
<g style=""   >
		<g transform="matrix(1 0 0 1 0 20)"  >
<rect style="stroke: none; stroke-width: 1; stroke-dasharray: none; stroke-linecap: butt; stroke-dashoffset: 0; stroke-linejoin: miter; stroke-miterlimit: 4; fill: rgb(255,255,255); fill-opacity: 0; fill-rule: nonzero; opacity: 1;"  x="-50" y="-50" rx="0" ry="0" width="100" height="100" />
</g>
		<g transform="matrix(1 0 0 1 0 0)" id="68"  >
<rect style="stroke: none; stroke-width: 1; stroke-dasharray: none; stroke-linecap: butt; stroke-dashoffset: 0; stroke-linejoin: miter; stroke-miterlimit: 4; fill: rgb(255,255,255); fill-opacity: 0; fill-rule: nonzero; opacity: 1;" vector-effect="non-scaling-stroke"  x="-50" y="-30" rx="0" ry="0" width="100" height="60" />
</g>
		<g transform="matrix(1.12 0 0 1.12 9.27 0)"  >
<path style="stroke: none; stroke-width: 1; stroke-dasharray: none; stroke-linecap: butt; stroke-dashoffset: 0; stroke-linejoin: miter; stroke-miterlimit: 4; fill: rgb(255,255,255); fill-rule: nonzero; opacity: 1;" vector-effect="non-scaling-stroke"  transform=" translate(-57.76, -49.75)" d="M 91.673 48.331 L 76.539 48.331 C 75.799 34.35 64.194 23.202 50.033 23.202 L 23.838 23.202 C 23.056 23.202 22.421 23.836000000000002 22.421 24.619000000000003 C 22.421 24.631000000000004 22.422 24.642000000000003 22.422 24.654000000000003 C 22.413 24.983000000000004 22.52 25.317000000000004 22.745 25.592000000000002 C 28.338 32.369 31.418 40.948 31.418 49.75 C 31.418 58.553 28.338 67.133 22.744999999999997 73.91 C 22.534999999999997 74.164 22.420999999999996 74.55199999999999 22.420999999999996 74.881 C 22.420999999999996 75.664 23.055999999999997 76.298 23.837999999999997 76.298 L 50.033 76.298 C 64.19500000000001 76.298 75.80199999999999 65.149 76.54 51.165000000000006 L 91.673 51.165000000000006 C 92.455 51.165000000000006 93.09 50.531000000000006 93.09 49.748000000000005 C 93.09 48.965 92.455 48.331 91.673 48.331 z M 50.033 73.464 L 26.66 73.464 C 31.573999999999998 66.576 34.253 58.26 34.253 49.75 C 34.253 41.241 31.573 32.924 26.658 26.036 L 50.033 26.036 C 63.107 26.036 73.743 36.674 73.743 49.75 C 73.743 62.826 63.107 73.464 50.033 73.464 z" stroke-linecap="round" />
</g>
		<g transform="matrix(1.12 0 0 1.12 -38.09 -1.65)"  >
<path style="stroke: none; stroke-width: 1; stroke-dasharray: none; stroke-linecap: butt; stroke-dashoffset: 0; stroke-linejoin: miter; stroke-miterlimit: 4; fill: rgb(255,255,255); fill-rule: nonzero; opacity: 1;" vector-effect="non-scaling-stroke"  transform=" translate(-15.58, -48.27)" d="M 23.838 35.095 L 7.328 35.095 C 6.545 35.095 5.91 35.729 5.91 36.512 C 5.91 37.295 6.545 37.929 7.328 37.929 L 23.838 37.929 C 24.621000000000002 37.929 25.256 37.295 25.256 36.512 C 25.256 35.729 24.621 35.095 23.838 35.095 z M 23.838 58.62 L 7.328 58.62 C 6.545 58.62 5.91 59.254 5.91 60.037 C 5.91 60.82 6.545 61.454 7.328 61.454 L 23.838 61.454 C 24.621000000000002 61.454 25.256 60.82 25.256 60.037 C 25.256 59.254 24.621 58.62 23.838 58.62 z" stroke-linecap="round" />
</g>
</g>
</g>
</svg>