<?xml version="1.0" encoding="UTF-8" standalone="no" ?>
<!DOCTYPE svg PUBLIC "-//W3C//DTD SVG 1.1//EN" "http://www.w3.org/Graphics/SVG/1.1/DTD/svg11.dtd">
<svg xmlns="http://www.w3.org/2000/svg" xmlns:xlink="http://www.w3.org/1999/xlink" version="1.1" width="99" height="60" viewBox="0 0 99 60" xml:space="preserve">
<desc>Created with Fabric.js 3.6.3</desc>
<defs>
</defs>
<g transform="matrix(2.17 0 0 2.17 153.5 331.5)"  >
<rect style="stroke: none; stroke-width: 1; stroke-dasharray: none; stroke-linecap: butt; stroke-dashoffset: 0; stroke-linejoin: miter; stroke-miterlimit: 4; fill: rgb(255,255,255); fill-opacity: 0; fill-rule: nonzero; opacity: 1;"  x="-50" y="-50" rx="0" ry="0" width="100" height="100" />
</g>
<g transform="matrix(2.17 0 0 2.17 153.5 288.11)"  >
<rect style="stroke: none; stroke-width: 1; stroke-dasharray: none; stroke-linecap: butt; stroke-dashoffset: 0; stroke-linejoin: miter; stroke-miterlimit: 4; fill: rgb(255,255,255); fill-opacity: 0; fill-rule: nonzero; opacity: 1;"  x="-50" y="-30" rx="0" ry="0" width="100" height="60" />
</g>
<g transform="matrix(0.46 0 0 0.46 49.71 30.16)"  >
<g style=""   >
		<g transform="matrix(2.14 0 0 2.14 0 0.29)"  >
<rect style="stroke: none; stroke-width: 1; stroke-dasharray: none; stroke-linecap: butt; stroke-dashoffset: 0; stroke-linejoin: miter; stroke-miterlimit: 4; fill: rgb(255,255,255); fill-opacity: 0; fill-rule: nonzero; opacity: 1;"  x="-50" y="-30" rx="0" ry="0" width="100" height="60" />
</g>
		<g transform="matrix(2.41 0 0 2.41 20.12 -0.37)"  >
<path style="stroke: none; stroke-width: 1; stroke-dasharray: none; stroke-linecap: butt; stroke-dashoffset: 0; stroke-linejoin: miter; stroke-miterlimit: 4; fill: rgb(255,255,255); fill-rule: nonzero; opacity: 1;"  transform=" translate(-57.76, -49.5)" d="M 85.665 49.558 C 85.024 46.906 82.637 44.927 79.79 44.927 C 78.509 44.927 77.32100000000001 45.33 76.34200000000001 46.014 C 74.62900000000002 33.018 63.488000000000014 22.952 50.03200000000001 22.952 L 23.839 22.952 C 23.057 22.952 22.421999999999997 23.586000000000002 22.421999999999997 24.369000000000003 C 22.421999999999997 24.381000000000004 22.421999999999997 24.392000000000003 22.421999999999997 24.404000000000003 C 22.413999999999998 24.733000000000004 22.519999999999996 25.067000000000004 22.746 25.342000000000002 C 28.337999999999997 32.118 31.418 40.698 31.418 49.5 C 31.418 58.303 28.338 66.884 22.746 73.66 C 22.535999999999998 73.914 22.421999999999997 74.30199999999999 22.421999999999997 74.631 C 22.421999999999997 75.414 23.057 76.048 23.839 76.048 L 50.032 76.048 C 62.580999999999996 76.048 73.116 67.292 75.87 55.57 C 76.927 56.473 78.29400000000001 57.022 79.79 57.022 C 82.637 57.022 85.024 55.043 85.665 52.391 L 91.673 52.391 C 92.455 52.391 93.09 51.757 93.09 50.974 C 93.09 50.190999999999995 92.455 49.556999999999995 91.673 49.556999999999995 L 85.665 49.556999999999995 z M 50.032 73.214 L 26.66 73.214 C 31.573999999999998 66.326 34.253 58.01 34.253 49.5 C 34.253 40.99 31.573 32.674 26.659 25.786 L 50.032 25.786 C 63.107 25.786 73.744 36.424 73.744 49.5 C 73.744 62.576 63.107 73.214 50.032 73.214 z M 79.79 54.188 C 78.019 54.188 76.578 52.746 76.578 50.974000000000004 C 76.578 49.202000000000005 78.019 47.760000000000005 79.79 47.760000000000005 C 81.56200000000001 47.760000000000005 83.004 49.202000000000005 83.004 50.974000000000004 C 83.004 52.746 81.562 54.188 79.79 54.188 z" stroke-linecap="round" />
</g>
		<g transform="matrix(2.39 0 0 2.39 -79.25 -0.14)"  >
<path style="stroke: none; stroke-width: 1; stroke-dasharray: none; stroke-linecap: butt; stroke-dashoffset: 0; stroke-linejoin: miter; stroke-miterlimit: 4; fill: rgb(255,255,255); fill-rule: nonzero; opacity: 1;"  transform=" translate(-16.64, -49.46)" d="M 17.969 23.247 C 17.471 22.643 16.577 22.558 15.974 23.056 C 15.370999999999999 23.554000000000002 15.285 24.449 15.784 25.052 C 18.535 28.384 20.68 32.152 22.161 36.163 L 7.326 36.163 C 6.542999999999999 36.163 5.909 36.797999999999995 5.909 37.580999999999996 C 5.909 38.364 6.543 38.998999999999995 7.326 38.998999999999995 L 23.081 38.998999999999995 C 24.041 42.382999999999996 24.547 45.90299999999999 24.547 49.462999999999994 C 24.547 53.02499999999999 24.04 56.54599999999999 23.080000000000002 59.931 L 7.326 59.931 C 6.542999999999999 59.931 5.909 60.565999999999995 5.909 61.349 C 5.909 62.131 6.543 62.766 7.326 62.766 L 22.159 62.766 C 20.677999999999997 66.779 18.534 70.54599999999999 15.782999999999998 73.878 C 15.283999999999997 74.482 15.369999999999997 75.374 15.972999999999997 75.872 C 16.237999999999996 76.091 16.557 76.197 16.874 76.197 C 17.282 76.197 17.686999999999998 76.021 17.968 75.682 C 24.037 68.32900000000001 27.380000000000003 59.018 27.380000000000003 49.462 C 27.381 39.909 24.038 30.599 17.969 23.247 z" stroke-linecap="round" />
</g>
</g>
</g>
</svg>