<?xml version="1.0" encoding="UTF-8" standalone="no" ?>
<!DOCTYPE svg PUBLIC "-//W3C//DTD SVG 1.1//EN" "http://www.w3.org/Graphics/SVG/1.1/DTD/svg11.dtd">
<svg xmlns="http://www.w3.org/2000/svg" xmlns:xlink="http://www.w3.org/1999/xlink" version="1.1" width="100" height="60" viewBox="0 0 100 60" xml:space="preserve">
<desc>Created with Fabric.js 3.6.3</desc>
<defs>
</defs>
<g transform="matrix(1 0 0 1 50 30)"  >
<g style=""   >
		<g transform="matrix(1 0 0 1 0 20)"  >
<rect style="stroke: none; stroke-width: 1; stroke-dasharray: none; stroke-linecap: butt; stroke-dashoffset: 0; stroke-linejoin: miter; stroke-miterlimit: 4; fill: rgb(255,255,255); fill-opacity: 0; fill-rule: nonzero; opacity: 1;"  x="-50" y="-50" rx="0" ry="0" width="100" height="100" />
</g>
		<g transform="matrix(1 0 0 1 0 0)"  >
<rect style="stroke: none; stroke-width: 1; stroke-dasharray: none; stroke-linecap: butt; stroke-dashoffset: 0; stroke-linejoin: miter; stroke-miterlimit: 4; fill: rgb(255,255,255); fill-opacity: 0; fill-rule: nonzero; opacity: 1;"  x="-50" y="-30" rx="0" ry="0" width="100" height="60" />
</g>
		<g transform="matrix(1.09 0 0 1.09 8.92 0.17)"  >
<path style="stroke: none; stroke-width: 1; stroke-dasharray: none; stroke-linecap: butt; stroke-dashoffset: 0; stroke-linejoin: miter; stroke-miterlimit: 4; fill: rgb(255,255,255); fill-rule: nonzero; opacity: 1;"  transform=" translate(-57.76, -49.72)" d="M 91.673 48.299 L 76.54 48.299 C 75.799 34.32 64.194 23.174 50.033 23.174 L 23.839 23.174 C 23.055999999999997 23.174 22.421 23.808 22.421 24.591 C 22.421 24.603 22.422 24.614 22.422 24.626 C 22.413 24.955000000000002 22.52 25.289 22.746000000000002 25.564 C 28.338 32.336 31.417 40.916 31.417 49.72 C 31.417 58.524 28.338 67.104 22.745 73.878 C 22.536 74.132 22.421 74.522 22.421 74.851 C 22.421 75.634 23.056 76.268 23.839 76.268 L 50.033 76.268 C 64.197 76.268 75.804 65.118 76.541 51.132999999999996 L 91.673 51.132999999999996 C 92.456 51.132999999999996 93.09100000000001 50.498999999999995 93.09100000000001 49.715999999999994 C 93.09100000000001 48.93299999999999 92.456 48.299 91.673 48.299 z M 50.033 73.434 L 26.659 73.434 C 31.573 66.548 34.253 58.232 34.253 49.72 C 34.253 41.208 31.573 32.891999999999996 26.659 26.008 L 50.033 26.008 C 63.108000000000004 26.008 73.745 36.646 73.745 49.72 C 73.745 62.796 63.108 73.434 50.033 73.434 z" stroke-linecap="round" />
</g>
		<g transform="matrix(1.09 0 0 1.09 -35.95 -0.11)"  >
<path style="stroke: none; stroke-width: 1; stroke-dasharray: none; stroke-linecap: butt; stroke-dashoffset: 0; stroke-linejoin: miter; stroke-miterlimit: 4; fill: rgb(255,255,255); fill-rule: nonzero; opacity: 1;"  transform=" translate(-16.64, -49.46)" d="M 17.969 23.247 C 17.471 22.643 16.577 22.558 15.974 23.056 C 15.370999999999999 23.554000000000002 15.285 24.449 15.784 25.052 C 18.535 28.384 20.68 32.152 22.161 36.163 L 7.326 36.163 C 6.542999999999999 36.163 5.909 36.797999999999995 5.909 37.580999999999996 C 5.909 38.364 6.543 38.998999999999995 7.326 38.998999999999995 L 23.081 38.998999999999995 C 24.041 42.382999999999996 24.547 45.90299999999999 24.547 49.462999999999994 C 24.547 53.02499999999999 24.04 56.54599999999999 23.080000000000002 59.931 L 7.326 59.931 C 6.542999999999999 59.931 5.909 60.565999999999995 5.909 61.349 C 5.909 62.131 6.543 62.766 7.326 62.766 L 22.159 62.766 C 20.677999999999997 66.779 18.534 70.54599999999999 15.782999999999998 73.878 C 15.283999999999997 74.482 15.369999999999997 75.374 15.972999999999997 75.872 C 16.237999999999996 76.091 16.557 76.197 16.874 76.197 C 17.282 76.197 17.686999999999998 76.021 17.968 75.682 C 24.037 68.32900000000001 27.380000000000003 59.018 27.380000000000003 49.462 C 27.381 39.909 24.038 30.599 17.969 23.247 z" stroke-linecap="round" />
</g>
</g>
</g>
</svg>